<svg width="1067" height="202" viewBox="0 0 1067 202" fill="none" xmlns="http://www.w3.org/2000/svg">
<path d="M171.58 153.844L183.161 192.602L194.672 153.844H202.575L214.156 192.602L225.667 153.844H233.977L218.039 201.528H209.796L198.488 164.333L187.043 201.528H178.732L162.929 153.844H171.58Z" fill="white"/>
<path d="M287.254 153.844V161.064H261.232V174.008H284.53V181.16H261.232V194.308H288.072V201.528H253.194V153.844H287.254Z" fill="white"/>
<path d="M341.823 187.427C341.823 183.203 338.077 180.615 331.81 180.682H319.547V194.307H331.81C338.077 194.375 341.823 191.854 341.823 187.427ZM339.983 167.195C339.983 163.243 336.918 160.996 331.81 161.064H319.547V173.599H331.81C336.918 173.599 339.983 171.283 339.983 167.195ZM348.227 165.764C348.227 171.078 345.025 175.098 339.849 176.391C346.251 177.48 350.066 182.046 350.066 188.448C350.066 196.623 343.458 201.527 332.695 201.527H311.511V153.844H332.219C342.095 153.844 348.227 158.34 348.227 165.764Z" fill="white"/>
<path d="M422.348 161.064C417.648 161.064 414.583 162.836 414.583 166.037C414.583 176.46 440.332 170.873 440.264 188.04C440.264 196.555 432.771 201.801 422.28 201.801C414.787 201.801 407.703 198.735 402.799 194.239L406.271 187.291C411.176 191.787 417.308 194.239 422.418 194.239C428.003 194.239 431.34 192.128 431.34 188.448C431.34 177.821 405.591 183.749 405.591 166.787C405.591 158.612 412.607 153.503 422.962 153.503C429.16 153.503 435.223 155.48 439.652 158.408L436.314 165.492C431.136 162.359 425.959 161.064 422.348 161.064Z" fill="white"/>
<path d="M467.518 177.685C467.518 187.154 475.35 194.649 484.683 194.649C494.015 194.649 501.646 187.154 501.646 177.685C501.646 168.217 494.015 160.861 484.683 160.861C475.283 160.861 467.518 168.217 467.518 177.685ZM509.887 177.685C509.887 191.31 498.852 201.869 484.615 201.869C470.379 201.869 459.342 191.31 459.342 177.685C459.342 163.993 470.379 153.64 484.615 153.64C498.852 153.64 509.887 164.062 509.887 177.685Z" fill="white"/>
<path d="M540.139 153.844V194.238H560.779V201.528H532.101V153.844H540.139Z" fill="white"/>
<path d="M601.995 194.648C609.761 194.648 614.598 189.879 614.598 181.772V153.843H622.635V181.772C622.635 194.238 614.802 201.868 601.927 201.868C589.053 201.868 581.15 194.238 581.15 181.772V153.843H589.19V181.772C589.19 189.811 594.162 194.648 601.995 194.648Z" fill="white"/>
<path d="M680.339 153.844V161.064H665.216V201.528H657.179V161.064H642.123V153.844H680.339Z" fill="white"/>
<path d="M708.887 201.528H700.848V153.844H708.887V201.528Z" fill="white"/>
<path d="M739.269 177.685C739.269 187.154 747.103 194.649 756.435 194.649C765.767 194.649 773.398 187.154 773.398 177.685C773.398 168.217 765.767 160.861 756.435 160.861C747.034 160.861 739.269 168.217 739.269 177.685ZM781.639 177.685C781.639 191.31 770.605 201.869 756.367 201.869C742.13 201.869 731.095 191.31 731.095 177.685C731.095 163.993 742.13 153.64 756.367 153.64C770.605 153.64 781.639 164.062 781.639 177.685Z" fill="white"/>
<path d="M811.756 153.844L837.301 188.108V153.844H845.202V201.528H837.301L811.893 167.332V201.528H803.853V153.844H811.756Z" fill="white"/>
<path d="M886.488 161.064C881.789 161.064 878.724 162.836 878.724 166.037C878.724 176.46 904.472 170.873 904.405 188.04C904.405 196.555 896.91 201.801 886.421 201.801C878.926 201.801 871.844 198.735 866.938 194.239L870.412 187.291C875.317 191.787 881.448 194.239 886.557 194.239C892.142 194.239 895.48 192.128 895.48 188.448C895.48 177.821 869.732 183.749 869.732 166.787C869.732 158.612 876.746 153.503 887.102 153.503C893.3 153.503 899.364 155.48 903.792 158.408L900.454 165.492C895.276 162.359 890.098 161.064 886.488 161.064Z" fill="white"/>
<path d="M59.7155 24.4862H38.9769L11.7595 87.1822C13.0435 86.2235 14.3275 85.2848 15.6315 84.3648C21.0555 80.4928 26.8049 76.6795 32.6329 73.0942C34.7409 71.7915 36.9075 70.5075 39.0915 69.2422L48.7715 45.4742L54.8275 60.5022C56.4182 59.6582 58.0289 58.8155 59.6769 57.9715C63.5302 56.0168 67.4595 54.0995 71.5422 52.2022L59.7155 24.4862ZM97.3022 112.484L84.3648 82.1795C80.5889 84.1542 77.0235 86.0702 73.6315 88.0062C71.6755 89.0795 69.6448 90.2488 67.4022 91.5915L76.2382 113.498H97.7435L97.3022 112.484Z" fill="white"/>
<path d="M521.309 5.7305C475.813 3.56383 429.171 3.2305 383.779 5.39716C345.553 7.23049 307.473 11.0212 269.809 17.0412C262.748 18.1665 255.685 19.3545 248.645 20.6465C239.457 22.4158 230.292 24.2705 221.188 26.2905C208.231 29.1452 195.379 32.3118 182.651 35.9358C181.255 36.3318 179.88 36.7278 178.484 37.1438C172.048 38.9985 165.652 40.9772 159.279 43.0185C158.195 43.3945 157.112 43.7478 156.028 44.1025C147.799 46.8105 139.655 49.7052 131.593 52.7878C127.323 54.3932 123.072 56.0798 118.843 57.8092C108.511 62.0798 98.2826 66.6412 88.2839 71.5785C82.0559 74.6825 75.8892 77.9118 69.8479 81.3278C66.1812 83.3692 62.5786 85.5145 58.9946 87.7025C49.4959 93.4305 40.3092 99.6385 31.6426 106.346C29.4759 108.013 27.3719 109.762 25.2479 111.45C24.4559 112.138 23.6439 112.805 22.8519 113.472V113.492H0.333252L5.31193 102.013C5.49993 101.846 5.68659 101.68 5.87459 101.534C8.16659 99.5758 10.5413 97.7852 12.8733 95.9305C15.2492 94.1812 17.6026 92.3478 20.0186 90.6598C25.4559 86.7652 30.9972 83.0985 36.6426 79.6412C40.9759 76.9745 45.3706 74.4118 49.8079 71.9532C54.2039 69.4745 58.6613 67.0998 63.1613 64.8092C69.2639 61.7038 75.4306 58.7878 81.6386 56.0172C92.0332 51.3932 102.575 47.1638 113.177 43.2478C121.927 40.0398 130.739 37.0612 139.613 34.3318C150.757 30.8532 161.985 27.7078 173.256 24.8745C175.297 24.3332 177.317 23.8332 179.359 23.3332C201.691 17.8958 224.292 13.8345 246.937 10.3758C292.308 3.87583 337.991 0.6465 383.632 0.189163C429.275 -0.248169 475.939 1.8345 521.309 5.7305Z" fill="white"/>
<path d="M521.309 24.4791V41.5191H548.392V101.991L568.48 113.492V41.5191H595.697V24.4791H521.309Z" fill="white"/>
<path d="M643.385 96.8354C628.511 96.8354 615.918 84.626 615.918 68.9847C615.918 53.3447 628.377 41.3847 643.385 41.3847C658.258 41.3847 670.354 53.3447 670.354 68.9847C670.354 84.626 658.258 96.8354 643.385 96.8354ZM643.135 23.846C615.918 23.846 595.314 43.0527 595.314 68.9847C595.314 94.8034 615.918 114.391 643.135 114.391C670.354 114.391 690.939 94.6687 690.939 68.9847C690.939 43.1674 670.354 23.846 643.135 23.846Z" fill="white"/>
<path d="M765.73 24.4791V81.6938L722.489 24.4791H704.185V113.492H723.389V56.3924L766.497 113.492H784.802V24.4791H765.73Z" fill="white"/>
<path d="M865.935 24.4791V81.6938L822.714 24.4791H804.39V113.492H823.595V56.3924L866.702 113.492H885.026V24.4791H865.935Z" fill="white"/>
<path d="M924.702 96.8353V77.1313H967.674V60.4753H924.702V41.1353H972.39V24.4794H904.616V113.493H973.789V96.8353H924.702Z" fill="white"/>
<path d="M1028.22 71.2662H1009.65V41.1356H1028.22C1039.28 41.1356 1045.65 46.0996 1045.65 56.0089C1045.65 66.1862 1039.28 71.2662 1028.22 71.2662ZM1048.06 84.1276C1058.87 79.0289 1064.72 69.1196 1064.72 55.3769C1064.72 35.6729 1051.49 24.4796 1028.22 24.4796H989.565V113.492H1009.65V88.0569H1030.12L1044.25 113.492H1067L1048.06 84.1276Z" fill="white"/>
<path d="M132.273 80.0449L144.674 49.6462L146.379 45.4676L147.663 48.6489L160.371 80.0449H132.273ZM165.335 43.2436L160.525 31.9542L157.323 24.4796H136.585L129.57 40.6556L122.19 57.6382L98.3847 112.476L97.9434 113.492H118.663L125.659 96.2022H166.85L173.846 113.492H195.353L165.335 43.2436Z" fill="white"/>
<path d="M243.288 71.2662H224.715V41.1356H243.288C254.348 41.1356 260.711 46.0996 260.711 56.0089C260.711 66.1862 254.348 71.2662 243.288 71.2662ZM263.127 84.1276C273.936 79.0289 279.783 69.1196 279.783 55.3769C279.783 37.4556 268.839 26.5689 249.366 24.7476C247.428 24.5742 245.398 24.4796 243.288 24.4796H204.628V113.492H224.715V88.0569H245.204L259.314 113.492H282.083L263.127 84.1276Z" fill="white"/>
<path d="M338.416 96.8354C323.543 96.8354 310.948 84.626 310.948 68.9847C310.948 53.3447 323.408 41.3847 338.416 41.3847C353.289 41.3847 365.384 53.3447 365.384 68.9847C365.384 84.626 353.289 96.8354 338.416 96.8354ZM338.167 23.846C310.948 23.846 290.344 43.0527 290.344 68.9847C290.344 94.8034 310.948 114.391 338.167 114.391C365.384 114.391 385.969 94.6687 385.969 68.9847C385.969 43.1674 365.384 23.846 338.167 23.846Z" fill="white"/>
<path d="M460.76 24.4791V81.6938L417.518 24.4791H399.214V113.492H418.42V56.3924L461.526 113.492H479.832V24.4791H460.76Z" fill="white"/>
</svg>
